PathFileType	4	(X/Y/Z)	/Users/itak/Documents/Research/Walk-IL/dataset/trc/00091_00006.trc
DataRate	CameraRate	NumFrames	NumMarkers	Units	OrigDataRate	OrigDataStartFrame	OrigNumFrames
100.000000	100.000000	4	53	mm	100.000000	0	517
Frame#	Time	RPSI			LPSI			L3			STRN			T10			C7			CLAV			RBAK			LBAK			LSHO			LUPA			LAEL			LAOL			LWTS			LWPS			LFRA			LHPS			LHTS			RSHO			RUPA			RAEL			RAOL			RWTS			RWPS			RFRA			RIFD			RHTS			RBHD			LFHD			RFHD			LBHD			LHIP			RHIP			RASI			LASI			LKNE			LTHI			LANK			LTIP			LTOE			LMT1			LMT5			LHEE			RKNE			RTHI			RANK			RTIP			RTOE			RMT1			RMT5			LIFD			RHPS			RHEE			
		X1	Y1	Z1	X2	Y2	Z2	X3	Y3	Z3	X4	Y4	Z4	X5	Y5	Z5	X6	Y6	Z6	X7	Y7	Z7	X8	Y8	Z8	X9	Y9	Z9	X10	Y10	Z10	X11	Y11	Z11	X12	Y12	Z12	X13	Y13	Z13	X14	Y14	Z14	X15	Y15	Z15	X16	Y16	Z16	X17	Y17	Z17	X18	Y18	Z18	X19	Y19	Z19	X20	Y20	Z20	X21	Y21	Z21	X22	Y22	Z22	X23	Y23	Z23	X24	Y24	Z24	X25	Y25	Z25	X26	Y26	Z26	X27	Y27	Z27	X28	Y28	Z28	X29	Y29	Z29	X30	Y30	Z30	X31	Y31	Z31	X32	Y32	Z32	X33	Y33	Z33	X34	Y34	Z34	X35	Y35	Z35	X36	Y36	Z36	X37	Y37	Z37	X38	Y38	Z38	X39	Y39	Z39	X40	Y40	Z40	X41	Y41	Z41	X42	Y42	Z42	X43	Y43	Z43	X44	Y44	Z44	X45	Y45	Z45	X46	Y46	Z46	X47	Y47	Z47	X48	Y48	Z48	X49	Y49	Z49	X50	Y50	Z50	X51	Y51	Z51	X52	Y52	Z52	X53	Y53	Z53	

1	0	-1358.259399414062	1031.922973632812	-146.3476715087891	-1369.53759765625	1023.628112792969	-321.3448486328125	-1361.782470703125	1084.13720703125	-239.4210357666016	-1115.782470703125	1291.8037109375	-233.5948181152344	-1384.481689453125	1218.87841796875	-243.0097351074219	-1330.463134765625	1486.694946289062	-243.99951171875	-1148.656494140625	1405.639282226562	-236.0348205566406	-1392.12548828125	1346.313720703125	-170.4456787109375	-1346.942993164062	1448.32568359375	-347.0600280761719	-1240.760620117188	1455.992309570312	-415.2335510253906	-1249.843627929688	1328.318969726562	-494.3228149414062	-1219.22802734375	1115.792114257812	-516.0186157226562	-1285.510009765625	1096.558715820312	-433.6028137207031	-1125.497680664062	876.3880004882812	-459.0423278808594	-1181.488403320312	866.7034912109375	-521.23193359375	-1196.32958984375	1008.095825195312	-526.6023559570312	-1146.0947265625	786.431396484375	-519.2351684570312	-1103.715698242188	793.5009155273438	-465.7486877441406	-1272.931518554688	1449.619262695312	-65.37890625	-1282.400024414062	1378.289184570312	-1.056822419166565	-1293.8486328125	1108.556396484375	15.2800407409668	-1277.73779296875	1091.594482421875	-81.50569915771484	-1134.852172851562	868.4469604492188	-26.34919166564941	-1208.121337890625	846.9494018554688	22.35707092285156	-1276.072998046875	1030.582641601562	19.29179191589355	-1119.145751953125	682.2063598632812	-46.30727386474609	-1105.556396484375	769.68359375	-25.15033531188965	-1302.101440429688	1658.119262695312	-175.8717956542969	-1107.550170898438	1705.484008789062	-272.2509155273438	-1137.604125976562	1696.08837890625	-150.1877136230469	-1279.623168945312	1675.415161132812	-310.8711547851562	-1263.706176757812	962.8566284179688	-411.487548828125	-1287.385009765625	962.880859375	-68.66151428222656	-1164.635864257812	984.1074829101562	-91.69931030273438	-1151.296752929688	977.4004516601562	-360.0842590332031	-1173.56005859375	502.423095703125	-347.4722900390625	-1210.1416015625	640.1556396484375	-388.2529602050781	-1311.372192382812	51.18890762329102	-355.7984008789062	-1247.214233398438	262.5175170898438	-364.6099548339844	-1104.493774414062	45.4246711730957	-343.2691650390625	-1154.368530273438	47.65693664550781	-292.82958984375	-1206.7841796875	42.09947967529297	-390.5184326171875	-1364.14404296875	49.18552398681641	-280.2611999511719	-1189.952392578125	520.9238891601562	-106.2542343139648	-1196.263549804688	790.3605346679688	-67.10626983642578	-1294.942138671875	46.44162368774414	-116.0198059082031	-1211.340942382812	396.2015380859375	-103.7598724365234	-1083.754028320312	42.46685028076172	-172.9391479492188	-1149.3662109375	48.24309539794922	-205.0515747070312	-1170.04541015625	49.58115005493164	-111.8820190429688	nan	nan	nan	nan	nan	nan	nan	nan	nan	
2	0.01	-1358.240478515625	1032.00244140625	-146.3605041503906	-1369.5673828125	1023.724670410156	-321.3301086425781	-1361.759399414062	1084.180419921875	-239.4101257324219	-1115.66015625	1291.805419921875	-233.5251159667969	-1384.447998046875	1218.915771484375	-242.9816284179688	-1330.398071289062	1486.787719726562	-243.9380493164062	-1148.587646484375	1405.638549804688	-235.9641571044922	-1392.101684570312	1346.353515625	-170.4233551025391	-1346.888549804688	1448.389892578125	-346.9830932617188	-1240.695434570312	1456.040649414062	-415.1676635742188	-1249.854736328125	1328.37939453125	-494.2741088867188	-1219.212890625	1115.902099609375	-516.113037109375	-1285.397094726562	1096.59912109375	-433.6374816894531	-1125.232666015625	876.5537109375	-459.4767761230469	-1181.401245117188	866.7984008789062	-521.5994873046875	-1196.366943359375	1008.222290039062	-526.8270263671875	-1146.098022460938	786.6334838867188	-519.8554077148438	-1103.640625	793.609619140625	-466.2406005859375	-1272.868774414062	1449.626220703125	-65.32270050048828	-1282.396484375	1378.297485351562	-1.022067666053772	-1294.176513671875	1108.631225585938	15.39847564697266	-1277.85009765625	1091.587524414062	-81.43883514404297	-1135.475463867188	868.2479248046875	-26.10883140563965	-1208.794311523438	846.8934326171875	22.6768970489502	-1276.517822265625	1030.654541015625	19.43822288513184	-1120.241577148438	681.9959716796875	-45.90546417236328	-1106.390502929688	769.423583984375	-24.85408592224121	-1301.9482421875	1658.1708984375	-175.7358703613281	-1107.444091796875	1705.484985351562	-272.1668395996094	-1137.430908203125	1696.068115234375	-150.0819091796875	-1279.508422851562	1675.46630859375	-310.7418518066406	-1263.80126953125	962.8934326171875	-411.4886169433594	-1287.3564453125	962.9434814453125	-68.69222259521484	-1164.603149414062	984.0947265625	-91.79011535644531	-1151.380249023438	977.418212890625	-360.1597290039062	-1173.640258789062	502.427734375	-347.518310546875	-1210.3125	640.1883544921875	-388.3294067382812	-1311.389770507812	51.1859130859375	-355.8096008300781	-1247.3095703125	262.5233764648438	-364.608154296875	-1104.51953125	45.45183181762695	-343.2768249511719	-1154.394165039062	47.66635131835938	-292.8450622558594	-1206.824951171875	42.13951110839844	-390.5576782226562	-1364.154418945312	49.18173980712891	-280.2650451660156	-1190.3271484375	520.8966674804688	-106.2807846069336	-1196.369995117188	790.3897705078125	-67.05789184570312	-1294.990478515625	46.39291000366211	-115.9897766113281	-1211.6611328125	396.2476806640625	-103.7021408081055	-1083.781372070312	42.50469970703125	-172.9378967285156	-1149.400268554688	48.28432464599609	-204.9813690185547	-1170.068725585938	49.59219741821289	-111.8657989501953	nan	nan	nan	nan	nan	nan	nan	nan	nan	
3	0.02	-1358.218017578125	1032.09716796875	-146.3812866210938	-1369.603149414062	1023.841064453125	-321.3198547363281	-1361.73876953125	1084.2353515625	-239.4056701660156	-1115.512573242188	1291.802856445312	-233.4514465332031	-1384.398681640625	1218.964599609375	-242.9454193115234	-1330.305419921875	1486.89892578125	-243.8640747070312	-1148.491333007812	1405.633544921875	-235.8811340332031	-1392.065795898438	1346.402954101562	-170.3917694091797	-1346.823974609375	1448.467895507812	-346.8873901367188	-1240.618530273438	1456.101684570312	-415.0877990722656	-1249.877685546875	1328.4560546875	-494.2156066894531	-1219.221435546875	1116.035522460938	-516.223876953125	-1285.2724609375	1096.650756835938	-433.6677551269531	-1124.960083007812	876.7359008789062	-459.9726867675781	-1181.328247070312	866.9144287109375	-522.0123291015625	-1196.422729492188	1008.374877929688	-527.082275390625	-1146.102416992188	786.8642578125	-520.5364990234375	-1103.601928710938	793.7283325195312	-466.7916259765625	-1272.768676757812	1449.63671875	-65.25051879882812	-1282.375122070312	1378.309204101562	-0.9788991808891296	-1294.571655273438	1108.72509765625	15.54502487182617	-1277.989013671875	1091.578369140625	-81.34678649902344	-1136.402099609375	867.9428100585938	-25.76597785949707	-1209.6552734375	846.820556640625	23.06536865234375	-1277.066162109375	1030.744384765625	19.62162399291992	-1121.611572265625	681.706787109375	-45.41957855224609	-1107.470581054688	769.0721435546875	-24.49565124511719	-1301.77392578125	1658.221069335938	-175.5686187744141	-1107.318481445312	1705.48828125	-272.0660400390625	-1137.207885742188	1696.046997070312	-149.95166015625	-1279.364868164062	1675.514038085938	-310.5772399902344	-1263.918334960938	962.9342041015625	-411.4864196777344	-1287.329467773438	963.0182495117188	-68.73609924316406	-1164.579711914062	984.0768432617188	-91.89920043945312	-1151.472900390625	977.4403686523438	-360.246337890625	-1173.724609375	502.4376525878906	-347.5587158203125	-1210.505493164062	640.22314453125	-388.4051818847656	-1311.4130859375	51.18564224243164	-355.8205261230469	-1247.411865234375	262.527587890625	-364.5951538085938	-1104.551025390625	45.48514556884766	-343.2858276367188	-1154.427001953125	47.67982864379883	-292.8592834472656	-1206.869262695312	42.18537902832031	-390.5973205566406	-1364.163208007812	49.1729850769043	-280.2591552734375	-1190.77783203125	520.8598022460938	-106.3183822631836	-1196.500366210938	790.4212646484375	-67.00162506103516	-1295.0498046875	46.33405303955078	-115.9575042724609	-1212.047973632812	396.304443359375	-103.6445617675781	-1083.815795898438	42.54974746704102	-172.9334259033203	-1149.443359375	48.32536697387695	-204.9103698730469	-1170.09765625	49.60499954223633	-111.8473892211914	-1112.363525390625	692.9234008789062	-446.227294921875	-1166.98876953125	760.4627075195312	26.51674652099609	-1346.194091796875	46.38497543334961	-168.3173065185547	
4	0.03	-1358.1953125	1032.2001953125	-146.4107818603516	-1369.643676757812	1023.970031738281	-321.3181457519531	-1361.725219726562	1084.299682617188	-239.4114990234375	-1115.349487304688	1291.793212890625	-233.3836212158203	-1384.3330078125	1219.02392578125	-242.9027709960938	-1330.183837890625	1487.020263671875	-243.7808685302734	-1148.36669921875	1405.6220703125	-235.7927856445312	-1392.015869140625	1346.459350585938	-170.3509063720703	-1346.752563476562	1448.555297851562	-346.7778015136719	-1240.534790039062	1456.171997070312	-414.9991455078125	-1249.915161132812	1328.545166015625	-494.1516723632812	-1219.264404296875	1116.183715820312	-516.3424682617188	-1285.149658203125	1096.711669921875	-433.6865539550781	-1124.702758789062	876.9232788085938	-460.4870300292969	-1181.286010742188	867.0442504882812	-522.4300537109375	-1196.498413085938	1008.542724609375	-527.3444213867188	-1146.107299804688	787.1068725585938	-521.2103271484375	-1103.612182617188	793.8482055664062	-467.3511352539062	-1272.625244140625	1449.64990234375	-65.16518402099609	-1282.328857421875	1378.323608398438	-0.9295492172241211	-1295.008666992188	1108.8330078125	15.71244621276855	-1278.147094726562	1091.567504882812	-81.22872924804688	-1137.634887695312	867.5255126953125	-25.32470321655273	-1210.678955078125	846.732421875	23.50055313110352	-1277.689331054688	1030.84716796875	19.83385848999023	-1123.203979492188	681.3374633789062	-44.87792205810547	-1108.76416015625	768.63720703125	-24.09795951843262	-1301.593139648438	1658.2607421875	-175.3793334960938	-1107.1826171875	1705.494873046875	-271.9552612304688	-1136.943359375	1696.027709960938	-149.8039703369141	-1279.199829101562	1675.549072265625	-310.3838500976562	-1264.051635742188	962.9745483398438	-411.4795227050781	-1287.309326171875	963.09912109375	-68.79249572753906	-1164.573974609375	984.0518798828125	-92.01932525634766	-1151.566650390625	977.4652099609375	-360.3368225097656	-1173.802001953125	502.4541015625	-347.5853881835938	-1210.699462890625	640.2550048828125	-388.4682922363281	-1311.439697265625	51.18930435180664	-355.8294372558594	-1247.508544921875	262.5286254882812	-364.5682373046875	-1104.58642578125	45.52259826660156	-343.2955627441406	-1154.464111328125	47.69661331176758	-292.8697204589844	-1206.913452148438	42.23394012451172	-390.6316833496094	-1364.168090820312	49.15815353393555	-280.240234375	-1191.2685546875	520.81494140625	-106.3669662475586	-1196.650634765625	790.4511108398438	-66.94203186035156	-1295.115966796875	46.26990127563477	-115.9266357421875	-1212.472534179688	396.366943359375	-103.5948181152344	-1083.85546875	42.59856796264648	-172.9246978759766	-1149.4921875	48.36142349243164	-204.8483428955078	-1170.130249023438	49.6185188293457	-111.8284301757812	-1112.119506835938	693.05126953125	-446.7165832519531	-1167.882202148438	760.399658203125	26.9344596862793	-1346.267944335938	46.34757232666016	-168.3158569335938	
